<svg width="10" height="10" viewBox="0 0 10 10" fill="none" xmlns="http://www.w3.org/2000/svg">
<path fill-rule="evenodd" clip-rule="evenodd" d="M9.17545 0.387583C9.58271 0.760614 9.61047 1.39317 9.23744 1.80044C8.08434 3.05937 7.52988 3.82692 6.69701 5.31719C6.38256 5.87984 6.0343 6.66017 5.75672 7.32399C5.62 7.65095 5.50411 7.94073 5.42249 8.14852C5.38173 8.25232 5.34962 8.33538 5.32786 8.39208L5.30323 8.45659L5.29714 8.47264L5.29573 8.47639C5.17161 8.80616 4.88277 9.04714 4.53594 9.10932C4.18908 9.17149 3.83511 9.04652 3.60417 8.78036L0.744693 5.48469C0.382751 5.06754 0.427509 4.43596 0.844662 4.07401C1.26182 3.71207 1.8934 3.75683 2.25534 4.17398L4.04513 6.23679C4.30929 5.62036 4.63434 4.90838 4.95116 4.34149C5.85954 2.7161 6.50494 1.82265 7.76259 0.449575C8.13562 0.0423073 8.76818 0.0145527 9.17545 0.387583Z" fill="white"/>
</svg>
