<svg width="12" height="7" viewBox="0 0 12 7" fill="none" xmlns="http://www.w3.org/2000/svg">
<path d="M5.57499 6.7751C5.44166 6.7751 5.31266 6.7501 5.18799 6.7001C5.06266 6.6501 4.95833 6.58343 4.87499 6.5001L0.274992 1.9001C0.0916587 1.71676 -7.62939e-06 1.48343 -7.62939e-06 1.2001C-7.62939e-06 0.916764 0.0916587 0.683431 0.274992 0.500097C0.458325 0.316764 0.691659 0.225098 0.974992 0.225098C1.25833 0.225098 1.49166 0.316764 1.67499 0.500097L5.57499 4.4001L9.47499 0.500097C9.65833 0.316764 9.89166 0.225098 10.175 0.225098C10.4583 0.225098 10.6917 0.316764 10.875 0.500097C11.0583 0.683431 11.15 0.916764 11.15 1.2001C11.15 1.48343 11.0583 1.71676 10.875 1.9001L6.27499 6.5001C6.17499 6.6001 6.06666 6.67076 5.94999 6.7121C5.83333 6.7541 5.70833 6.7751 5.57499 6.7751Z" fill="#5A616A"/>
</svg>
